<svg version="1.1" xmlns="http://www.w3.org/2000/svg" width="24" height="24" viewBox="0 0 24 24">
<path d="M17.808 4.008l-5.808 5.784-5.808-5.784q-0.384-0.408-1.008-0.408t-1.176 0.408q-0.408 0.384-0.408 1.080 0 0.336 0.108 0.564t0.396 0.444l5.688 5.904-5.784 5.808q-1.032 1.032 0.012 2.076t2.076 0.012l5.808-5.808 5.808 5.808q0.384 0.408 1.092 0.408t1.092-0.408q0.24-0.216 0.324-0.468t0.084-0.636q0-0.696-0.408-1.104l-5.784-5.688 5.88-5.808q1.080-1.056 0-2.088-0.528-0.6-1.056-0.624t-1.128 0.528z" fill="#000000"></path>
</svg>